<?xml version="1.0" encoding="UTF-8"?>
<svg id="a" xmlns="http://www.w3.org/2000/svg" version="1.1" viewBox="0 0 16 16">
  <!-- Generator: Adobe Illustrator 29.7.1, SVG Export Plug-In . SVG Version: 2.1.1 Build 8)  -->
  <defs>
    <style>
      .st0 {
        fill: #211e20;
      }

      .st1 {
        fill: #e5e5e5;
      }

      .st2 {
        fill: #fff;
      }
    </style>
  </defs>
  <g>
    <circle class="st2" cx="7.96" cy="8" r="7.49"/>
    <path class="st1" d="M7.96.51c4.14,0,7.49,3.35,7.49,7.49s-3.35,7.49-7.49,7.49S.47,12.14.47,8,3.83.51,7.96.51M7.96.28c-1.04,0-2.05.2-3.01.61-.92.39-1.75.95-2.45,1.65-.71.71-1.27,1.54-1.65,2.45-.4.95-.61,1.96-.61,3.01s.2,2.05.61,3.01c.39.92.95,1.75,1.65,2.45.71.71,1.54,1.27,2.45,1.65.95.4,1.96.61,3.01.61s2.05-.2,3.01-.61c.92-.39,1.75-.95,2.45-1.65.71-.71,1.27-1.54,1.65-2.45.4-.95.61-1.96.61-3.01s-.2-2.05-.61-3.01c-.39-.92-.95-1.75-1.65-2.45s-1.54-1.27-2.45-1.65c-.95-.4-1.96-.61-3.01-.61h0Z"/>
  </g>
  <path class="st0" d="M11.96,3.11h-6.14l-1.17,1.75h4.05l-5.13,7.7h10.34c.41-.53.75-1.12,1.01-1.75H6.86l5.11-7.7Z"/>
</svg>